<svg width="713" height="569" viewBox="0 0 713 569" fill="none" xmlns="http://www.w3.org/2000/svg">
<g clip-path="url(#clip0_148_2)">
<rect width="713" height="569" fill="#140B1C"/>
<g opacity="0.4248">
<g opacity="0.4248">
<path opacity="0.4248" d="M-0.00384521 13.5259C-13.3322 24.9936 -14.1817 41.8384 -13.8947 57.0211C-13.6536 69.9455 -15.0427 84.18 -24.4563 94.8852C-31.2525 102.618 -41.4927 107.115 -51.3999 111.368C-58.265 114.311 -65.0038 117.4 -72.1444 119.835C-81.0069 122.855 -90.1565 125.466 -98.3418 129.719C-106.527 133.961 -112.979 139.896 -117.295 147.189C-121.577 154.433 -123.85 162.44 -125.492 170.388C-125.905 172.373 -126.25 174.377 -126.583 176.372C-126.663 176.87 -125.791 177.095 -125.676 176.587C-123.965 168.599 -122.301 160.534 -118.891 152.918C-115.413 145.175 -109.994 138.175 -102.13 133.17C-94.4156 128.262 -85.3234 125.339 -76.4264 122.396C-72.0181 120.939 -67.6097 119.473 -63.3277 117.733C-60.1592 116.442 -57.0711 114.995 -53.937 113.636C-43.9953 109.354 -33.5026 105.209 -25.9143 98.043C-16.3055 88.9607 -13.4125 76.5544 -12.8155 64.6858C-12.4137 56.6594 -13.1485 48.6428 -12.2186 40.6359C-11.3232 32.9223 -9.05011 25.1207 -3.89557 18.6292C-2.57537 16.9672 -1.07149 15.4323 0.57016 14.0147C0.948997 13.6921 0.375 13.2033 -0.00384521 13.5259Z" fill="url(#paint0_linear_148_2)"/>
</g>
</g>
<g opacity="0.4248">
<g opacity="0.4248">
<path opacity="0.4248" d="M-105.953 230.885C-106.286 214.783 -101.935 198.74 -93.4169 184.359C-84.692 169.636 -71.8459 157.19 -55.9805 147.766C-39.1852 137.794 -20.0709 130.305 -6.04234 117.283C0.0306015 111.642 5.09329 105.053 7.6763 97.6715C10.8218 88.6576 9.37535 79.3407 7.34338 70.278C5.2081 60.7851 2.44141 50.95 4.69151 41.2909C6.39055 33.9782 11.6254 26.8023 19.8451 23.6836C21.8427 22.9308 24.0124 22.4322 26.1821 22.2269C26.7217 22.178 26.7561 21.4644 26.1821 21.4839C17.6869 21.7674 10.6726 27.076 6.8153 33.2254C1.85593 41.1443 2.23477 50.4807 3.77309 59.1035C5.54102 68.9484 9.03094 78.6955 8.37659 88.7456C7.82554 97.1338 3.84197 104.945 -1.98988 111.642C-14.595 126.131 -33.8814 134.274 -51.2277 143.885C-59.6656 148.558 -67.6557 153.749 -74.6355 159.947C-81.1217 165.705 -86.7699 172.158 -91.4423 179.08C-100.856 193.011 -106.401 208.898 -107.009 224.98C-107.09 226.955 -107.067 228.93 -106.975 230.895C-106.952 231.442 -105.942 231.442 -105.953 230.885Z" fill="url(#paint1_linear_148_2)"/>
</g>
</g>
<path d="M470.715 324.656C482.495 311.926 497.395 302.786 510.255 291.266C521.465 281.226 531.765 268.465 534.285 253.215C536.705 238.495 530.985 224.015 521.755 212.705C511.475 200.105 497.165 191.925 482.425 185.565C466.315 178.615 449.305 173.885 433.505 166.205C417.765 158.545 403.305 148.626 387.795 140.576C376.045 134.476 361.615 130.746 348.545 134.516C338.485 137.416 330.685 144.655 324.705 152.995C317.875 162.515 313.065 173.335 308.195 183.925C305.405 190.005 302.675 196.106 299.005 201.726C294.895 208.006 289.925 213.715 284.295 218.675C278.525 223.765 272.045 228.046 265.105 231.356C257.115 235.166 248.525 237.395 239.915 239.305C224.255 242.775 207.935 245.575 194.785 255.435C189.255 259.585 184.475 264.865 181.685 271.255C178.895 277.635 178.335 284.705 179.745 291.505C182.775 306.085 193.475 317.825 206.105 325.065C234.645 341.435 272.545 338.626 297.065 362.526C308.965 374.126 315.415 389.746 323.715 403.836C331.085 416.356 340.575 428.805 354.445 434.435C368.595 440.185 384.715 437.186 397.745 429.966C411.835 422.166 422.155 409.286 430.255 395.646C432.295 392.206 434.215 388.706 436.055 385.156C437.955 381.506 439.415 377.685 441.205 373.985C441.375 373.625 440.845 373.305 440.665 373.665C438.895 377.335 436.755 380.846 434.875 384.456C432.985 388.086 431.025 391.686 428.925 395.206C424.795 402.136 420.165 408.786 414.685 414.716C404.115 426.156 389.865 434.755 374.075 435.975C366.485 436.565 358.825 435.275 351.995 431.855C345.325 428.515 339.705 423.466 334.945 417.776C324.915 405.786 318.915 391.205 310.755 377.995C306.695 371.425 302.055 365.146 296.305 359.956C290.525 354.736 283.755 350.735 276.655 347.605C262.065 341.165 246.315 338.265 231.095 333.735C215.935 329.225 200.525 322.775 190.355 310.135C181.145 298.685 176.775 282.725 184.215 269.215C191.435 256.105 206.105 249.125 219.945 245.315C236.135 240.855 253.105 239.165 268.205 231.335C280.945 224.735 291.955 214.825 299.875 202.865C306.635 192.665 310.805 180.885 316.285 169.985C321.125 160.375 326.715 150.636 334.955 143.516C343.495 136.136 354.285 133.345 365.415 134.745C382.025 136.825 396.065 146.736 410.175 154.976C417.605 159.316 425.095 163.575 432.845 167.335C440.315 170.965 448.015 173.915 455.815 176.745C484.835 187.315 520.235 199.526 531.155 231.826C533.565 238.946 534.275 246.565 532.865 253.965C531.425 261.505 527.995 268.505 523.585 274.745C514.165 288.105 500.725 297.565 488.085 307.605C481.715 312.665 475.515 317.945 470.045 323.975C469.635 324.435 470.305 325.106 470.715 324.656Z" fill="url(#paint2_linear_148_2)"/>
<path d="M392.975 127.669C379.525 120.189 362.865 115.269 347.585 119.649C335.725 123.049 326.775 131.909 320.015 141.889C312.405 153.119 307.045 165.709 301.365 177.979C297.885 185.489 294.095 192.709 289.015 199.289C283.555 206.369 277.055 212.649 269.805 217.869C262.305 223.259 254.045 227.469 245.285 230.379C235.295 233.699 224.915 235.539 214.665 237.859C197.815 241.689 179.945 247.639 168.915 261.819C164.035 268.089 161.135 275.689 161.005 283.659C160.865 291.839 163.485 299.899 167.615 306.899C176.985 322.809 193.275 331.909 210.275 337.739C228.475 343.979 247.685 346.949 265.505 354.349C274.405 358.049 282.925 362.899 289.985 369.529C296.985 376.109 302.395 384.119 307.205 392.379C316.275 407.979 323.575 424.989 336.645 437.819C342.675 443.739 349.885 448.529 358.025 450.969C366.205 453.409 374.945 453.409 383.255 451.639C422.305 443.309 439.685 403.959 455.425 371.649C464.225 353.589 473.985 336.009 488.815 322.159C503.135 308.789 520.225 298.589 533.575 284.149C545.435 271.329 554.355 254.909 552.265 236.939C550.275 219.859 539.645 204.749 526.605 194.059C511.585 181.749 493.005 174.549 474.965 167.929C465.285 164.379 455.485 161.069 446.085 156.809C436.805 152.599 427.885 147.669 419.075 142.569C414.865 140.129 410.685 137.649 406.485 135.189C402.025 132.579 397.395 130.319 392.885 127.809C392.535 127.609 392.215 128.149 392.565 128.349C397.065 130.849 401.345 133.759 405.785 136.369C409.985 138.829 414.165 141.309 418.375 143.749C426.985 148.739 435.705 153.559 444.755 157.699C462.705 165.919 481.885 171.069 499.785 179.429C516.475 187.219 532.175 197.679 542.195 213.499C546.795 220.759 550.075 228.959 550.975 237.539C551.915 246.489 550.115 255.439 546.295 263.549C538.295 280.539 523.385 292.659 508.875 303.929C501.175 309.909 493.395 315.839 486.365 322.609C479.565 329.149 473.715 336.539 468.635 344.479C458.275 360.669 451.025 378.549 442.135 395.539C433.455 412.119 422.835 428.719 407.215 439.579C392.785 449.609 373.775 454.989 356.665 449.109C339.825 443.319 328.695 427.989 320.215 413.149C311.215 397.389 303.735 380.099 290.005 367.719C276.445 355.499 258.615 349.719 241.315 345.099C223.035 340.219 203.945 336.219 187.825 325.799C173.605 316.609 161.785 300.709 162.345 283.119C162.905 265.299 177.305 252.769 192.545 246.049C210.835 237.979 231.355 237.269 249.955 230.109C265.535 224.109 279.345 213.769 289.615 200.629C298.735 188.969 303.875 175.079 310.285 161.879C315.815 150.489 322.085 138.809 331.575 130.189C341.375 121.279 353.955 117.919 366.995 119.739C375.985 120.989 384.535 124.189 392.485 128.519C393.025 128.789 393.505 127.969 392.975 127.669Z" fill="url(#paint3_linear_148_2)"/>
</g>
<defs>
<linearGradient id="paint0_linear_148_2" x1="-126.592" y1="95.1455" x2="0.696556" y2="95.1455" gradientUnits="userSpaceOnUse">
<stop stop-color="#5C5A44"/>
<stop offset="0.6103" stop-color="#3F4541"/>
<stop offset="1" stop-color="#313C40"/>
</linearGradient>
<linearGradient id="paint1_linear_148_2" x1="-107.046" y1="126.386" x2="26.2443" y2="126.386" gradientUnits="userSpaceOnUse">
<stop stop-color="#5C5A44"/>
<stop offset="0.6103" stop-color="#3F4541"/>
<stop offset="1" stop-color="#313C40"/>
</linearGradient>
<linearGradient id="paint2_linear_148_2" x1="271.615" y1="177.883" x2="462.312" y2="368.58" gradientUnits="userSpaceOnUse">
<stop stop-color="#3B2D57"/>
<stop offset="0.251" stop-color="#3B2D57"/>
<stop offset="0.397" stop-color="#3B2D57"/>
<stop offset="0.5161" stop-color="#3B2D57"/>
<stop offset="0.6208" stop-color="#3B2D57"/>
<stop offset="0.716" stop-color="#3B2D57"/>
<stop offset="0.8042" stop-color="#3B2D57"/>
<stop offset="0.8873" stop-color="#3B2D57"/>
<stop offset="0.964" stop-color="#3B2D57"/>
<stop offset="1" stop-color="#3B2D57"/>
</linearGradient>
<linearGradient id="paint3_linear_148_2" x1="183.193" y1="352.272" x2="547.479" y2="219.683" gradientUnits="userSpaceOnUse">
<stop offset="0.0277" stop-color="#3B2D57"/>
<stop offset="0.0356" stop-color="#3B2D57"/>
<stop offset="0.0797" stop-color="#3B2D57"/>
<stop offset="0.1292" stop-color="#3B2D57"/>
<stop offset="0.1831" stop-color="#3B2D57"/>
<stop offset="0.2427" stop-color="#3B2D57"/>
<stop offset="0.3099" stop-color="#3B2D57"/>
<stop offset="0.3884" stop-color="#3B2D57"/>
<stop offset="0.4856" stop-color="#3B2D57"/>
<stop offset="0.6218" stop-color="#3B2D57"/>
<stop offset="1" stop-color="#3B2D57"/>
</linearGradient>
<clipPath id="clip0_148_2">
<rect width="713" height="569" fill="white"/>
</clipPath>
</defs>
</svg>
