<?xml version="1.0" encoding="UTF-8"?>
<svg version="1.1" viewBox="0 0 964 1040" width="1280" height="1280" xmlns="http://www.w3.org/2000/svg">
<path transform="translate(0)" d="m0 0h964v1040h-964z" fill="#110819"/>
<path transform="translate(282,132)" d="m0 0 6 1 9 7 12 13 16 17 7 7 7 8 8 8 7 8 16 17 12 13 7 7 7 8 9 9 7 8 7 7 7 8 48 51 15 16 12 13 7 7 7 8 9 9 7 8 30 32 7 7 7 8 9 9 7 8 9 9 7 8 8 8 5 6v-163l-2-12-5-12-8-11-9-7-8-4-15-3-20-1-1-1v-6l1-1h172l1 1v6l-3 1-17 1-17 4-11 7-8 8-6 10-4 13-1 15v190l2 9 7 7 7 8 9 9 7 8 10 10 7 8 7 7 7 8 48 51 9 9 6 7v-97l-1-127v-120l1-58v-50l-2-13-5-11-7-11-9-8-11-6-13-3-8-1h-16l-2-1v-8l4-1h174l10 1v7l-1 1-26 2-15 5-9 6-6 5-8 11-5 12-2 10v505l2 33 5 49-1 4-7-1-8-7-24-26-15-16-14-15-16-17-15-16-29-31-16-17-11-12-16-17-4-3v149l1 29 3 36 3 24v6l-1 1-7-1-14-14-7-8-7-7-7-8-7-7-7-8-9-9-7-8-8-8-7-8-7-7-7-8-8-8-7-8-9-9-7-8-16-17-12-13-8-8-7-8-9-9-7-8-16-17-74-79-14-15-16-17-11-12-12-12v47l5 15v18l-4 10-1 73v42l2 15 5 12 7 9 10 9 12 6 16 3 20 1 1 2v6l-5 1h-182l-1-1v-8l21-1 15-3 12-6 9-7 6-8 6-12 2-8 1-9v-105l-1-3-8-7-5-8-2-7v-11l3-9 6-8 6-5 1-4v-83l-3-6-8-8-7-8-10-10-7-8-8-8-7-8-30-32-5-5v-2h-3l1 2v413l2 16 4 10 7 9 7 7 11 6 10 3 25 2 1 1v6l-5 1h-154l-14-1-1-1v-5l1-1 24-2 11-3 10-5 9-8 7-11 3-7 2-14v-65l-1-73v-203l1-63v-50l-2-44-4-40v-5h6l8 7 19 19 7 8 9 9 7 8 15 16 12 13 8 8 7 8 9 9v2h2l7 8 9 9 7 8 1 1v-150l-2-47-5-49v-5z" fill="#fff"/>
<path transform="translate(331,268)" d="m0 0 7 6 16 17 10 10 7 8 7 7 7 8 8 8 7 8 31 33 7 7 7 8 7 7 7 8 31 33 7 7 7 8 16 17 14 15 16 17 15 16 14 15 12 13 9 9 7 8 7 7 6 8 1 2v161l-5-3-7-8-16-17-9-9-7-8-16-17-47-50-12-13-15-16-7-7-7-8-9-9-7-8-15-16-29-31-16-17-15-16-11-12-8-8-7-8-9-9-7-8-8-9-2-10v-131z" fill="#120919"/>
<path transform="translate(602,51)" d="m0 0h13l11 2 10 5 12 11 6 9 4 11 1 9-1 14-4 12-7 11-8 7-11 6-10 3-12 1-15-3-10-5-10-9-5-6-5-10-2-7v-23l4-11 7-10 8-8 11-6 6-2z" fill="#fff"/>
<path transform="translate(332,896)" d="m0 0h11l9 2 11 6 8 7 6 10 3 10v15l-3 10-6 10-7 7-12 6-4 1h-21l-11-4-9-7-7-9-4-10-1-16 2-10 5-10 10-10 11-6z" fill="#fff"/>
<path transform="translate(280,133)" d="m0 0h1l3 23 3 31 1 17v29h-1l-1-27-2-21-2-28-2-9z" fill="#413846"/>
</svg>
