<svg width="713" height="569" viewBox="0 0 713 569" fill="none" xmlns="http://www.w3.org/2000/svg">
<g clip-path="url(#clip0_148_2)">
<rect width="713" height="569" fill="#140B1C"/>
<path d="M339.415 665.515C358.621 652.483 369.217 632.901 367.449 613.739C364.946 586.707 340.322 567.516 308.43 556.126C296.755 551.952 284.494 548.559 273.565 543.398C247.184 530.933 248.413 511.429 236.359 492.414C203.905 441.185 113.35 478.541 57.5686 466.535C21.2687 458.724 -4.1481 433.345 -5.42238 405.804C-5.51423 403.83 -5.5257 401.747 -6.86886 400.026C-7.79875 398.844 -9.27967 397.954 -10.7836 397.162C-34.2602 384.746 -69.5498 389.341 -90.4894 402.666C-113.645 417.409 -124.241 440.071 -130.509 462.107C-135.514 479.694 -138.384 497.986 -133.413 515.584C-119.936 563.351 -54.247 593.326 -26.8556 637.769C-20.9434 647.37 -16.8565 657.586 -9.84219 666.776C7.99778 690.141 42.4723 703.926 76.8665 712.823C119.274 723.792 166.893 729.032 208.726 716.939C235.521 709.196 258.113 694.863 285.091 687.472C303.884 682.301 324.686 675.506 339.415 665.515Z" fill="url(#paint0_linear_148_2)"/>
<path d="M457.453 44.1945C451.012 62.4373 458.394 89.1367 475.097 103.361C491.789 117.586 518.239 125.143 543.484 122.914C561.691 121.301 578.475 115.054 596.028 111.134C613.581 107.213 633.889 105.903 649.135 113.46C656.999 117.351 663.347 123.501 672.611 124.909C680.934 126.179 689.636 123.071 695.296 118.368C700.944 113.666 704.032 107.585 706.397 101.523C713.056 84.5026 714.95 66.4652 711.942 48.8872C709.83 36.5493 704.974 23.9671 693.746 14.7284C676.71 0.699251 649.295 -2.63451 624.154 -5.55765C601.562 -8.18751 578.9 -11.1595 556.032 -10.9933C533.163 -10.8369 509.767 -7.32717 490.699 2.02885C471.619 11.3751 457.51 27.2324 457.453 44.1945Z" fill="url(#paint1_linear_148_2)"/>
<g opacity="0.4248">
<g opacity="0.4248">
<path opacity="0.4248" d="M-0.00384173 13.5259C-13.3322 24.9936 -14.1817 41.8384 -13.8947 57.0211C-13.6536 69.9455 -15.0427 84.18 -24.4563 94.8852C-31.2525 102.618 -41.4927 107.115 -51.3999 111.368C-58.265 114.311 -65.0038 117.4 -72.1444 119.835C-81.0069 122.855 -90.1565 125.466 -98.3418 129.719C-106.527 133.961 -112.979 139.896 -117.295 147.189C-121.577 154.433 -123.85 162.44 -125.492 170.388C-125.905 172.373 -126.25 174.377 -126.583 176.372C-126.663 176.87 -125.791 177.095 -125.676 176.587C-123.965 168.599 -122.301 160.534 -118.891 152.918C-115.413 145.175 -109.994 138.175 -102.13 133.17C-94.4156 128.262 -85.3234 125.339 -76.4264 122.396C-72.0181 120.939 -67.6097 119.473 -63.3277 117.733C-60.1592 116.442 -57.0711 114.995 -53.937 113.636C-43.9953 109.354 -33.5026 105.209 -25.9143 98.043C-16.3055 88.9607 -13.4125 76.5544 -12.8155 64.6858C-12.4137 56.6594 -13.1485 48.6428 -12.2186 40.6359C-11.3232 32.9223 -9.05011 25.1207 -3.89557 18.6292C-2.57537 16.9672 -1.07148 15.4323 0.57016 14.0147C0.949001 13.6921 0.374999 13.2033 -0.00384173 13.5259Z" fill="url(#paint2_linear_148_2)"/>
</g>
</g>
<g opacity="0.4248">
<g opacity="0.4248">
<path opacity="0.4248" d="M-105.953 230.885C-106.286 214.783 -101.935 198.74 -93.4169 184.359C-84.692 169.636 -71.8459 157.19 -55.9805 147.766C-39.1852 137.794 -20.0709 130.305 -6.04233 117.283C0.0306027 111.642 5.09329 105.053 7.6763 97.6715C10.8218 88.6576 9.37535 79.3407 7.34339 70.278C5.2081 60.7851 2.44142 50.95 4.6915 41.2909C6.39055 33.9782 11.6254 26.8023 19.8451 23.6836C21.8427 22.9308 24.0124 22.4322 26.1821 22.2269C26.7217 22.178 26.7561 21.4644 26.1821 21.4839C17.6869 21.7674 10.6726 27.076 6.8153 33.2254C1.85592 41.1443 2.23477 50.4807 3.7731 59.1035C5.54102 68.9484 9.03095 78.6955 8.37658 88.7456C7.82554 97.1338 3.84197 104.945 -1.98988 111.642C-14.595 126.131 -33.8814 134.274 -51.2277 143.885C-59.6656 148.558 -67.6557 153.749 -74.6355 159.947C-81.1217 165.705 -86.7699 172.158 -91.4423 179.08C-100.856 193.011 -106.401 208.898 -107.009 224.98C-107.09 226.955 -107.067 228.93 -106.975 230.895C-106.952 231.442 -105.942 231.442 -105.953 230.885Z" fill="url(#paint3_linear_148_2)"/>
</g>
</g>
</g>
<defs>
<linearGradient id="paint0_linear_148_2" x1="232.981" y1="466.786" x2="88.2" y2="590.651" gradientUnits="userSpaceOnUse">
<stop offset="0.1031" stop-color="#3B2D57"/>
<stop offset="0.3506" stop-color="#3B2D57" stop-opacity="0.8"/>
<stop offset="0.714" stop-color="#3B2D57" stop-opacity="0.6"/>
<stop offset="0.9948" stop-color="#3B2D57" stop-opacity="0.905882"/>
</linearGradient>
<linearGradient id="paint1_linear_148_2" x1="455.143" y1="57.0908" x2="713.338" y2="57.0908" gradientUnits="userSpaceOnUse">
<stop offset="0.1031" stop-color="#3B2D57"/>
<stop offset="0.3506" stop-color="#3B2D57" stop-opacity="0.5"/>
<stop offset="0.714" stop-color="#3B2D57" stop-opacity="0.4"/>
<stop offset="0.9948" stop-color="#3B2D57" stop-opacity="0.2"/>
</linearGradient>
<linearGradient id="paint2_linear_148_2" x1="-126.592" y1="95.1455" x2="0.696556" y2="95.1455" gradientUnits="userSpaceOnUse">
<stop stop-color="#5C5A44"/>
<stop offset="0.6103" stop-color="#3F4541"/>
<stop offset="1" stop-color="#313C40"/>
</linearGradient>
<linearGradient id="paint3_linear_148_2" x1="-107.046" y1="126.386" x2="26.2443" y2="126.386" gradientUnits="userSpaceOnUse">
<stop stop-color="#5C5A44"/>
<stop offset="0.6103" stop-color="#3F4541"/>
<stop offset="1" stop-color="#313C40"/>
</linearGradient>
<clipPath id="clip0_148_2">
<rect width="713" height="569" fill="white"/>
</clipPath>
</defs>
</svg>
